<svg xmlns="http://www.w3.org/2000/svg" width="18.066" height="26.905" viewBox="0 0 18.066 26.905">
  <path id="facebook" d="M15.977,7.874c.4-.05.817-.07,1.218-.09l.481-.025A1.238,1.238,0,0,0,18.927,6.7a11.7,11.7,0,0,0,.026-4.435,1.068,1.068,0,0,0-1.159-.958c-.6.031-1.22.049-1.817.067a34.335,34.335,0,0,0-4.652.351A5.5,5.5,0,0,0,6.509,6.746a22.17,22.17,0,0,0-.147,2.426c-.008.322-.016.656-.029.982-.01.244-.008.493-.005.756,0,.092,0,.187,0,.286l-.73.025c-.6.02-1.163.039-1.721.066l-.245.012a13.051,13.051,0,0,0-1.472.124,1,1,0,0,0-.989,1.125c-.053,1.144-.106,2.474-.076,3.791.026,1.12.509,1.587,1.668,1.613.476.011.96,0,1.427-.018.294-.009.6-.018.9-.021a4.814,4.814,0,0,1,.534.031l.141.012.032.084a.468.468,0,0,1,.038.124c.01,2.616.021,5.4.023,8.205,0,1.342.315,1.689,1.6,1.763,1.05.061,2.12.069,3.154.078l.4,0h.1c1.508,0,1.813-.318,2-1.968a8.678,8.678,0,0,0,.061-.9c.015-1.673.024-3.373.033-5.018l0-.538c0-.333,0-.665,0-1.029V18.33h.8c.631,0,1.226,0,1.81,0a1.727,1.727,0,0,0,1.732-1.2c.4-1.152.784-2.414,1.174-3.859a1.075,1.075,0,0,0-.114-.937,1.046,1.046,0,0,0-.881-.384c-.7-.006-1.415.021-2.1.047-.359.014-.719.027-1.078.037-.267.007-.539.005-.8,0l-.271,0c-.016-.064-.031-.121-.045-.172a2.569,2.569,0,0,1-.075-.338,2.849,2.849,0,0,1-.026-.6C13.5,9.164,13.711,8.156,15.977,7.874ZM16.493,14l-.634,2.319-.671.011c-.532.009-1.052.018-1.572.028-2.1.043-2.381.315-2.475,2.422-.063,1.429-.071,2.883-.078,4.289,0,.593-.006,1.185-.013,1.777,0,.336,0,.672,0,1.024,0,.133,0,.269,0,.407a10.729,10.729,0,0,1-2.787.051L7.949,26.3c-.008-.054-.017-.106-.026-.157a3.49,3.49,0,0,1-.057-.467Q7.825,24.2,7.79,22.72c-.041-1.636-.083-3.328-.139-4.992-.047-1.4-.364-1.693-1.792-1.653-.668.02-1.329.058-2.029.1L3,16.222V13.3l.195-.028a5.7,5.7,0,0,1,.624-.071c.364-.014.735-.02,1.094-.026.524-.009,1.065-.018,1.6-.051,1.341-.084,1.6-.358,1.6-1.723,0-.4,0-.8,0-1.2,0-.642-.008-1.305.007-1.957A10.423,10.423,0,0,1,8.242,7l.034-.239a3.861,3.861,0,0,1,3.3-3.373l.132-.033a3.008,3.008,0,0,1,.683-.118c1.148-.011,2.28-.009,3.479-.008h1.144a6.14,6.14,0,0,1-.054,2.611l-.474.086c-.4.072-.813.146-1.219.232-2.226.468-3.238,1.614-3.494,3.955-.014.128-.028.256-.043.383-.07.618-.143,1.258-.155,1.891-.021,1.1.348,1.507,1.409,1.552.6.026,1.213.014,1.8,0,.327-.006.665-.012,1-.012a4.211,4.211,0,0,1,.505.041l.2.023Z" transform="translate(-1.087 -1.308)" fill="#fff"/>
</svg>
