<svg xmlns="http://www.w3.org/2000/svg" xmlns:xlink="http://www.w3.org/1999/xlink" width="26.992" height="26.771" viewBox="0 0 26.992 26.771">
  <defs>
    <clipPath id="clip-path">
      <rect id="長方形_34" data-name="長方形 34" width="26.992" height="26.771" transform="translate(0.757 0.709)" fill="#fff"/>
    </clipPath>
  </defs>
  <g id="instagram" transform="translate(-0.757 -0.709)" clip-path="url(#clip-path)">
    <path id="パス_22" data-name="パス 22" d="M27.6,5.137C27.211,1.905,24.492.608,21.972.758c-1.5.088-2.976.134-4.739.178-1.6.039-3.236.073-4.681.1-2.074.043-4.218.087-6.348.146a4.81,4.81,0,0,0-4.8,3.83,15.127,15.127,0,0,0-.147,2.748c.028,2.873.07,5.776.111,8.583l0,.3q.024,1.694.048,3.388c0,.19.009.381.016.572v.015a10.333,10.333,0,0,1-.014,1.418,4.626,4.626,0,0,0,1.291,3.594,5.261,5.261,0,0,0,4.17,1.577c1.795-.093,3.625-.075,5.4-.058h.128c2.1.02,4.237.073,6.306.125l1.043.026a2.9,2.9,0,0,1,.521.079c.09.019.179.038.268.053a.232.232,0,0,0,.039,0h1.132l.033,0c.226-.033.454-.063.68-.093l.017,0c.508-.066,1.033-.135,1.545-.246a5.469,5.469,0,0,0,4.086-5q0-.789.006-1.577v-.264c.011-2.882.023-5.863-.039-8.8C28.006,9.324,27.855,7.2,27.6,5.137ZM26.376,21.942a4,4,0,0,1-3.422,3.673,19.323,19.323,0,0,1-4.443.086c-.542-.031-1.1-.064-1.658-.079-.632-.017-1.275-.049-1.9-.081l-.055,0-.806-.039h-.012q-1.021,0-2.042,0l-2.4,0c-1.06,0-1.932,0-2.744.007H6.858a3.9,3.9,0,0,1-2.841-1.022,4.091,4.091,0,0,1-1.047-3c.021-2.985.008-6.007,0-8.929-.007-1.669-.014-3.394-.015-5.1A6.064,6.064,0,0,1,3.6,4.618,3.181,3.181,0,0,1,6.413,3.009c1.993-.188,3.6-.291,5.06-.322,4.213-.092,7.456-.125,10.513-.106a3.6,3.6,0,0,1,3.938,3.208,36.856,36.856,0,0,1,.451,7.185v.2c-.009,3.353-.009,6.139,0,8.767Z" transform="translate(-0.418 -0.031)" fill="#fff"/>
    <path id="パス_23" data-name="パス 23" d="M49.676,42.574a7.282,7.282,0,0,0-3.7.841,5.425,5.425,0,0,0-3.035,3.351,8.946,8.946,0,0,0,.706,6.26,4.35,4.35,0,0,0,3.213,2.5,15.365,15.365,0,0,0,2.524.229c.265,0,.529-.009.782-.027A5.93,5.93,0,0,0,54.6,53.5a6.674,6.674,0,0,0,.851-7.1A5.756,5.756,0,0,0,49.676,42.574Zm4.575,6.712a4.65,4.65,0,0,1-4.876,4.855,10.893,10.893,0,0,1-2.252-.2,2.9,2.9,0,0,1-2.143-1.7,7.005,7.005,0,0,1-.568-4.9,4.249,4.249,0,0,1,2.851-2.864,4.959,4.959,0,0,1,1.873-.358,5.882,5.882,0,0,1,1.641.242A4.94,4.94,0,0,1,54.252,49.286Z" transform="translate(-34.851 -34.808)" fill="#fff"/>
    <path id="パス_24" data-name="パス 24" d="M120.941,26.093h-.032a1.214,1.214,0,0,0-1.184,1.181,1.123,1.123,0,0,0,.305.828,1.147,1.147,0,0,0,.836.343,1.194,1.194,0,0,0,1.155-1.173A1.172,1.172,0,0,0,120.941,26.093Z" transform="translate(-98.916 -21.106)" fill="#fff"/>
  </g>
</svg>
