<svg xmlns="http://www.w3.org/2000/svg" xmlns:xlink="http://www.w3.org/1999/xlink" width="31.37" height="26.836" viewBox="0 0 31.37 26.836">
  <defs>
    <clipPath id="clip-path">
      <rect id="長方形_33" data-name="長方形 33" width="31.37" height="26.836" transform="translate(0.131 0.777)" fill="#fff"/>
    </clipPath>
  </defs>
  <g id="twitter" transform="translate(-0.131 -0.776)" clip-path="url(#clip-path)">
    <path id="パス_21" data-name="パス 21" d="M29.9,5.638c-.486.123-.976.22-1.407.305l-.391.078c-.306-.355-.6-.7-.882-1.034-.654-.77-1.272-1.5-1.917-2.195a5.481,5.481,0,0,0-3.276-1.636,9.161,9.161,0,0,0-9.771,5.934c-.061.186-.127.37-.19.546L12,7.8l-.015,0-.037.005a2.943,2.943,0,0,1-.338-.121A12.505,12.505,0,0,1,6.07,2.659c-.068-.11-.132-.222-.2-.334a6.2,6.2,0,0,0-.4-.64,1.113,1.113,0,0,0-.909-.538,1.007,1.007,0,0,0-.8.576,10.666,10.666,0,0,0-.756,1.609,10.135,10.135,0,0,0,.16,6.853c.069.218.133.442.215.725.024.087.052.181.081.282l-2.147-.929a.126.126,0,0,0-.169.074,5.3,5.3,0,0,0,.069,3.626,9.5,9.5,0,0,0,4.122,5.423c-.208.143-.413.285-.614.426a9.342,9.342,0,0,1-3.637,1.834,1.123,1.123,0,0,0-.828.518,1.25,1.25,0,0,0,.006,1.079,3.281,3.281,0,0,0,.745,1.214A9.434,9.434,0,0,0,3,26.011a16.2,16.2,0,0,0,7.652,1.773q.524,0,1.061-.027A15.4,15.4,0,0,0,21.776,23.2a21.754,21.754,0,0,0,6.1-11.288,2.743,2.743,0,0,1,1.238-2.053,5.112,5.112,0,0,0,2.118-2.688,1.255,1.255,0,0,0-.052-1.313C30.811,5.407,30.33,5.528,29.9,5.638ZM2.772,23.155c.277-.109.539-.212.793-.319a9.127,9.127,0,0,0,3.567-2.61c.319-.388.438-.662.4-.918s-.244-.492-.683-.776A9.3,9.3,0,0,1,3.5,15.109a6.491,6.491,0,0,1-.845-2.5,2.951,2.951,0,0,1,.994.081,2.227,2.227,0,0,0,1.636-.109.126.126,0,0,0,.048-.048,1.373,1.373,0,0,0-.112-1.349c-.042-.09-.084-.18-.121-.271A10.7,10.7,0,0,1,4.212,5.1a7.733,7.733,0,0,1,.219-.9c.031-.109.063-.222.1-.34a2.257,2.257,0,0,1,.585.684c.056.088.115.18.177.266a12.939,12.939,0,0,0,4.932,4.287,10.135,10.135,0,0,0,1.3.526,1.361,1.361,0,0,0,1.093.046c.237-.135.391-.414.515-.936a7.02,7.02,0,0,1,1.592-3.166A7.77,7.77,0,0,1,21.19,2.791,3.9,3.9,0,0,1,23.921,4,14.729,14.729,0,0,1,25.863,6.41a2.255,2.255,0,0,0,2.6,1.314,1.4,1.4,0,0,1,.311-.008l.059,0a2.227,2.227,0,0,1-1.184.941,2.3,2.3,0,0,0-1.52,1.828c-.138.447-.272.9-.4,1.345-.371,1.257-.755,2.557-1.253,3.783a16.656,16.656,0,0,1-8.162,9.07,12.267,12.267,0,0,1-8.593,1.021c-1.255-.317-2.465-.679-3.6-1.076A2.8,2.8,0,0,1,2.46,23.278Z" transform="translate(-0.008 -0.232)" fill="#fff"/>
  </g>
</svg>
